<mxfile host="app.diagrams.net" modified="2024-07-10T19:14:21.593Z" agent="Mozilla/5.0 (Windows NT 10.0; Win64; x64; rv:127.0) Gecko/20100101 Firefox/127.0" etag="UNjoVzprrmDS42lsfKcj" version="24.6.2" type="device">
  <diagram name="Page-1" id="2cc2dc42-3aac-f2a9-1cec-7a8b7cbee084">
    <mxGraphModel dx="2074" dy="1956" grid="1" gridSize="10" guides="1" tooltips="1" connect="1" arrows="1" fold="1" page="1" pageScale="1" pageWidth="1100" pageHeight="850" background="none" math="0" shadow="0">
      <root>
        <mxCell id="0" />
        <mxCell id="1" parent="0" />
        <mxCell id="7026571954dc6520-1" value="" style="strokeWidth=1;shadow=0;dashed=0;align=center;html=1;shape=mxgraph.mockup.containers.browserWindow;rSize=0;strokeColor=#666666;mainText=,;recursiveResize=0;rounded=0;labelBackgroundColor=none;fontFamily=Verdana;fontSize=12" parent="1" vertex="1">
          <mxGeometry x="10" y="-10" width="1050" height="820" as="geometry" />
        </mxCell>
        <mxCell id="7026571954dc6520-2" value="Page 1" style="strokeWidth=1;shadow=0;dashed=0;align=center;html=1;shape=mxgraph.mockup.containers.anchor;fontSize=17;fontColor=#666666;align=left;" parent="7026571954dc6520-1" vertex="1">
          <mxGeometry x="60" y="12" width="110" height="26" as="geometry" />
        </mxCell>
        <mxCell id="7026571954dc6520-3" value="&lt;div&gt;https://www.default.com/song.html?id=?&lt;/div&gt;" style="strokeWidth=1;shadow=0;dashed=0;align=center;html=1;shape=mxgraph.mockup.containers.anchor;rSize=0;fontSize=17;fontColor=#666666;align=left;" parent="7026571954dc6520-1" vertex="1">
          <mxGeometry x="130" y="60" width="250" height="26" as="geometry" />
        </mxCell>
        <mxCell id="7026571954dc6520-16" value="Song Name" style="text;html=1;points=[];align=left;verticalAlign=top;spacingTop=-4;fontSize=15;fontFamily=Verdana" parent="7026571954dc6520-1" vertex="1">
          <mxGeometry x="440" y="210" width="170" height="30" as="geometry" />
        </mxCell>
        <mxCell id="Au9KBMOpigVklPiua_w_-5" value="" style="rounded=0;whiteSpace=wrap;html=1;" parent="7026571954dc6520-1" vertex="1">
          <mxGeometry x="-5" y="110" width="1050" height="60" as="geometry" />
        </mxCell>
        <mxCell id="7026571954dc6520-18" value="&lt;div&gt;Home&lt;/div&gt;" style="strokeWidth=1;shadow=0;dashed=0;align=center;html=1;shape=mxgraph.mockup.buttons.button;strokeColor=#666666;mainText=;buttonStyle=round;fontSize=17;fontStyle=0;fillColor=none;whiteSpace=wrap;rounded=0;labelBackgroundColor=none;" parent="7026571954dc6520-1" vertex="1">
          <mxGeometry y="110" width="220" height="60" as="geometry" />
        </mxCell>
        <mxCell id="Au9KBMOpigVklPiua_w_-6" value="Albums" style="strokeWidth=1;shadow=0;dashed=0;align=center;html=1;shape=mxgraph.mockup.buttons.button;strokeColor=#666666;mainText=;buttonStyle=round;fontSize=17;fontStyle=0;fillColor=none;whiteSpace=wrap;rounded=0;labelBackgroundColor=none;" parent="7026571954dc6520-1" vertex="1">
          <mxGeometry x="220" y="110" width="220" height="60" as="geometry" />
        </mxCell>
        <mxCell id="Au9KBMOpigVklPiua_w_-7" value="Songs" style="strokeWidth=1;shadow=0;dashed=0;align=center;html=1;shape=mxgraph.mockup.buttons.button;strokeColor=#666666;mainText=;buttonStyle=round;fontSize=17;fontStyle=0;fillColor=none;whiteSpace=wrap;rounded=0;labelBackgroundColor=none;" parent="7026571954dc6520-1" vertex="1">
          <mxGeometry x="440" y="110" width="220" height="60" as="geometry" />
        </mxCell>
        <mxCell id="Au9KBMOpigVklPiua_w_-8" value="Artists" style="strokeWidth=1;shadow=0;dashed=0;align=center;html=1;shape=mxgraph.mockup.buttons.button;strokeColor=#666666;mainText=;buttonStyle=round;fontSize=17;fontStyle=0;fillColor=none;whiteSpace=wrap;rounded=0;labelBackgroundColor=none;" parent="7026571954dc6520-1" vertex="1">
          <mxGeometry x="660" y="110" width="220" height="60" as="geometry" />
        </mxCell>
        <mxCell id="Au9KBMOpigVklPiua_w_-29" value="" style="verticalLabelPosition=bottom;shadow=0;dashed=0;align=center;html=1;verticalAlign=top;strokeWidth=1;shape=mxgraph.mockup.graphics.simpleIcon;strokeColor=#999999;" parent="7026571954dc6520-1" vertex="1">
          <mxGeometry x="75" y="270" width="100" height="100" as="geometry" />
        </mxCell>
        <mxCell id="_8-HvFUTvOcPKnJIH6Ef-2" value="Artist ID: ?" style="text;spacingTop=-5;whiteSpace=wrap;html=1;align=left;fontSize=12;fontFamily=Helvetica;fillColor=none;strokeColor=none;" vertex="1" parent="7026571954dc6520-1">
          <mxGeometry x="75" y="250" width="80" height="20" as="geometry" />
        </mxCell>
        <mxCell id="_8-HvFUTvOcPKnJIH6Ef-3" value="&lt;font style=&quot;font-size: 11px;&quot;&gt;Editable &lt;/font&gt;song name" style="rounded=0;whiteSpace=wrap;html=1;" vertex="1" parent="7026571954dc6520-1">
          <mxGeometry x="75" y="370" width="105" height="20" as="geometry" />
        </mxCell>
        <mxCell id="_8-HvFUTvOcPKnJIH6Ef-5" value="Delete" style="rounded=0;whiteSpace=wrap;html=1;" vertex="1" parent="7026571954dc6520-1">
          <mxGeometry x="75" y="410" width="105" height="20" as="geometry" />
        </mxCell>
        <mxCell id="_8-HvFUTvOcPKnJIH6Ef-4" value="Submit Changes" style="rounded=0;whiteSpace=wrap;html=1;" vertex="1" parent="7026571954dc6520-1">
          <mxGeometry x="75" y="390" width="105" height="20" as="geometry" />
        </mxCell>
        <mxCell id="_8-HvFUTvOcPKnJIH6Ef-14" value="Duration" style="text;spacingTop=-5;whiteSpace=wrap;html=1;align=left;fontSize=12;fontFamily=Helvetica;fillColor=none;strokeColor=none;" vertex="1" parent="7026571954dc6520-1">
          <mxGeometry x="200" y="250" width="80" height="20" as="geometry" />
        </mxCell>
        <mxCell id="_8-HvFUTvOcPKnJIH6Ef-15" value="Editable duration" style="rounded=0;whiteSpace=wrap;html=1;" vertex="1" parent="7026571954dc6520-1">
          <mxGeometry x="195" y="270" width="105" height="20" as="geometry" />
        </mxCell>
        <mxCell id="_8-HvFUTvOcPKnJIH6Ef-18" value="Lyrics:" style="text;spacingTop=-5;whiteSpace=wrap;html=1;align=left;fontSize=12;fontFamily=Helvetica;fillColor=none;strokeColor=none;" vertex="1" parent="7026571954dc6520-1">
          <mxGeometry x="200" y="290" width="80" height="20" as="geometry" />
        </mxCell>
        <mxCell id="_8-HvFUTvOcPKnJIH6Ef-19" value="Editable lyrics" style="rounded=0;whiteSpace=wrap;html=1;" vertex="1" parent="7026571954dc6520-1">
          <mxGeometry x="195" y="310" width="105" height="20" as="geometry" />
        </mxCell>
        <mxCell id="_8-HvFUTvOcPKnJIH6Ef-20" value="Album ID" style="text;spacingTop=-5;whiteSpace=wrap;html=1;align=left;fontSize=12;fontFamily=Helvetica;fillColor=none;strokeColor=none;" vertex="1" parent="7026571954dc6520-1">
          <mxGeometry x="200" y="330" width="80" height="20" as="geometry" />
        </mxCell>
        <mxCell id="_8-HvFUTvOcPKnJIH6Ef-21" value="Editable album id" style="rounded=0;whiteSpace=wrap;html=1;" vertex="1" parent="7026571954dc6520-1">
          <mxGeometry x="195" y="350" width="105" height="20" as="geometry" />
        </mxCell>
        <mxCell id="_8-HvFUTvOcPKnJIH6Ef-22" value="ICON" style="text;spacingTop=-5;whiteSpace=wrap;html=1;align=left;fontSize=12;fontFamily=Helvetica;fillColor=none;strokeColor=none;" vertex="1" parent="7026571954dc6520-1">
          <mxGeometry x="200" y="370" width="80" height="20" as="geometry" />
        </mxCell>
        <mxCell id="_8-HvFUTvOcPKnJIH6Ef-23" value="Editable icon href" style="rounded=0;whiteSpace=wrap;html=1;" vertex="1" parent="7026571954dc6520-1">
          <mxGeometry x="195" y="390" width="105" height="20" as="geometry" />
        </mxCell>
      </root>
    </mxGraphModel>
  </diagram>
</mxfile>
